#!OML:ASF H:\Terrain\Patient Classification 1\Takeo\Monday\TakeoMonday.ASF
:FULLY-SPECIFIED
:DEGREES
174
root 9.09431 17.4232 0.776112 3.05008 5.66263 -9.04016
lowerback 7.37479 5.91976 -4.45566
upperback 2.43577 7.38949 -9.51378
thorax -0.843173 3.74368 -8.09592
lowerneck -7.59015 -8.00599 -9.5273
upperneck -13.3301 -8.88683 17.3211
head -1.32919 -4.38935 6.69456
rclavicle 9.54166e-015 3.49861e-014
rhumerus 77.4535 -6.54287 -46.366
rradius 28.5508
rwrist -15.2129
rhand -24.0306 15.5024
rfingers 7.12502
rthumb 2.44782 -14.4633
lclavicle 9.54166e-015 3.49861e-014
lhumerus -34.584 -3.78794 86.5494
lradius 115.083
lwrist 22.3835
lhand -28.2097 5.63841
lfingers 7.12502
lthumb -1.58843 35.6122
rfemur 4.51716 -23.1249 34.1836
rtibia 15.8127
rfoot -20.0622 -24.9739
rtoes -2.43913
lfemur -28.6679 -2.81513 -8.87618
ltibia 43.0086
lfoot -14.0589 1.05529
ltoes -7.60246
175
root 9.09766 17.4309 0.783775 3.04603 5.62691 -8.78326
lowerback 7.31423 5.9932 -4.78889
upperback 2.54489 7.4794 -9.51774
thorax -0.72686 3.7868 -7.90664
lowerneck -7.77973 -8.03951 -9.65906
upperneck -13.3822 -8.91313 17.1733
head -1.3148 -4.38465 6.6638
rclavicle -1.145e-013 1.27222e-013
rhumerus 76.6727 -6.47716 -45.8295
rradius 30.2462
rwrist -16.0077
rhand -24.0793 15.5266
rfingers 7.12502
rthumb 2.40075 -14.4397
lclavicle -1.145e-013 1.27222e-013
lhumerus -34.7309 -3.55044 87.0521
lradius 114.781
lwrist 22.0701
lhand -27.9827 4.79109
lfingers 7.12502
lthumb -1.36919 34.7664
rfemur 4.55199 -23.0831 33.8871
rtibia 15.7935
rfoot -19.6387 -25.1994
rtoes -3.95989
lfemur -28.5872 -2.88169 -9.19234
ltibia 42.9099
lfoot -14.012 1.20965
ltoes -7.49254
176
root 9.10291 17.4414 0.791762 3.0729 5.52842 -8.48505
lowerback 7.16532 6.04045 -5.21009
upperback 2.59177 7.53167 -9.51594
thorax -0.643867 3.8083 -7.65401
lowerneck -7.81253 -7.97547 -9.69166
upperneck -13.4019 -8.83221 16.9373
head -1.34115 -4.33591 6.60019
rclavicle 1.59028e-014 -3.18055e-015
rhumerus 75.5539 -6.16327 -45.1976
rradius 32.5206
rwrist -17.0627
rhand -24.3798 15.4036
rfingers 7.12502
rthumb 2.11059 -14.5657
lclavicle 1.59028e-014 -3.18055e-015
lhumerus -34.8614 -3.16479 87.4876
lradius 114.448
lwrist 21.7584
lhand -27.8399 4.37033
lfingers 7.12502
lthumb -1.23124 34.3465
rfemur 4.67093 -22.7601 33.5102
rtibia 15.7307
rfoot -20.1138 -24.9859
rtoes -2.96341
lfemur -28.491 -2.98108 -9.54295
ltibia 42.7931
lfoot -13.9737 1.40099
ltoes -6.49584
177
root 9.11162 17.4444 0.794174 3.00764 5.33454 -8.31039
lowerback 7.1804 6.07745 -5.38698
upperback 2.60076 7.56562 -9.52823
thorax -0.660277 3.82297 -7.57406
lowerneck -7.84881 -7.87669 -9.58136
upperneck -13.4509 -8.71163 16.6448
head -1.39107 -4.27276 6.49853
rclavicle -3.18055e-014 6.99722e-014
rhumerus 74.6041 -5.77557 -44.9737
rradius 34.4037
rwrist -17.809
rhand -24.7835 15.6474
rfingers 7.12502
rthumb 1.72067 -14.3254
lclavicle -3.18055e-014 6.99722e-014
lhumerus -35.1639 -2.86019 87.6239
lradius 114.411
lwrist 21.8319
lhand -27.5567 4.62403
lfingers 7.12502
lthumb -0.957798 34.6016
rfemur 4.85428 -22.5113 33.1935
rtibia 15.7469
rfoot -20.6474 -24.5564
rtoes -1.24647
lfemur -28.3122 -3.05951 -9.76156
ltibia 42.7139
lfoot -13.9237 1.65552
ltoes -6.26321
178
root 9.11942 17.442 0.786822 2.82438 5.13923 -8.57612
lowerback 7.46527 6.13142 -5.0115
upperback 2.59349 7.63131 -9.46662
thorax -0.77986 3.85867 -7.75547
lowerneck -8.00093 -7.83865 -9.60708
upperneck -13.4976 -8.64249 16.5949
head -1.39152 -4.22928 6.48728
rclavicle -9.38264e-014 1.59028e-014
rhumerus 73.6492 -5.50344 -44.6353
rradius 36.0816
rwrist -18.703
rhand -24.8149 15.8565
rfingers 7.12502
rthumb 1.69038 -14.1166
lclavicle -9.38264e-014 1.59028e-014
lhumerus -35.6088 -2.88448 87.7153
lradius 114.604
lwrist 22.0506
lhand -27.6505 5.02901
lfingers 7.12502
lthumb -1.04832 35.0062
rfemur 5.00763 -22.3925 33.3637
rtibia 15.8549
rfoot -20.7919 -24.2647
rtoes -1.00421
lfemur -28.1247 -3.00326 -9.48643
ltibia 42.7047
lfoot -13.8955 1.75991
ltoes -7.17739
179
root 9.12851 17.4352 0.779379 2.77356 4.95284 -8.92741
lowerback 7.61748 6.15815 -4.56999
upperback 2.51009 7.67561 -9.41928
thorax -0.896919 3.88353 -7.97647
lowerneck -8.37375 -7.71934 -9.49729
upperneck -13.2194 -8.48873 16.5125
head -1.2813 -4.13453 6.42912
rclavicle 6.36111e-014 -8.90555e-014
rhumerus 72.4774 -5.12749 -44.5701
rradius 38.1298
rwrist -19.4739
rhand -24.6659 15.8317
rfingers 7.12502
rthumb 1.83426 -14.1402
lclavicle 6.36111e-014 -8.90555e-014
lhumerus -35.9769 -2.93818 87.9135
lradius 114.686
lwrist 22.1741
lhand -27.7651 5.12823
lfingers 7.12502
lthumb -1.15909 35.1048
rfemur 5.05603 -22.1766 33.698
rtibia 15.8903
rfoot -21.0577 -24.0416
rtoes -0.400753
lfemur -28.0665 -2.8682 -9.12339
ltibia 42.7413
lfoot -13.9503 1.83901
ltoes -8.62269
